<svg xmlns="http://www.w3.org/2000/svg" viewBox="0 0 7870 7870" role="img" aria-label="ERPyA">
  <g transform="translate(0 7870) scale(1 -1)">
    <path fill="#1AAAD4" d="M4141 7101c82-21 175-64 249-114 247-169 382-492 324-777-37-187-29-263 37-346 165-208 201-269 253-424 46-139 60-244 53-394-9-206-78-411-193-575-28-39-330-350-754-776-389-390-722-732-739-758-128-190-146-445-47-654 88-184 241-254 458-209 99 20 225 20 324 0 102-21 195-14 272 21 50 23 132 101 650 618 326 326 606 612 622 637 57 91 72 188 45 310-21 96-19 251 5 346 125 499 665 746 1122 514 198-101 346-290 404-515 23-91 23-264 1-358-36-147-127-300-239-402-190-172-441-239-697-185-52 11-116 20-143 20-60 0-158-32-212-70-23-16-300-289-617-607-535-536-578-582-597-633-33-92-35-153-12-296 16-96 21-151 16-214-23-335-254-620-575-709-433-120-884 158-975 601-22 104-20 206 5 335 29 150 13 243-56 333-100 129-142 194-186 285-56 118-85 222-101 363-26 233 40 494 178 705 35 54 230 255 768 797 770 774 770 773 818 920 29 90 36 272 14 361-58 226-202 370-360 356-33-3-86-13-116-22-87-27-243-31-354-10-61 11-120 16-167 13-139-9-118 8-791-666-568-569-607-611-626-664-34-93-36-141-12-262 26-124 24-263-5-371-58-218-232-421-439-515-113-51-179-64-326-64-124 0-143 3-228 31-428 142-654 598-503 1013 99 270 335 464 624 510 90 15 198 9 314-16 71-15 92-16 151-5 38 7 92 26 123 43 81 45 1217 1183 1252 1254 45 89 52 163 28 288-25 128-27 230-5 334 66 323 327 570 659 623 74 12 220 2 306-20z" />
    <path fill="#0D2167" d="M3789 6985c-195-49-357-182-440-360-49-106-63-170-62-285 1-184 60-327 188-456 118-119 221-171 386-195 324-47 643 173 725 501 24 97 16 272-19 368-69 196-220 346-417 413-83 28-275 36-361 14z" />
    <path fill="#0D2167" d="M1260 4464c-230-61-407-238-470-468-29-103-25-276 8-376 53-160 179-308 324-379 110-54 183-71 298-72 126 0 186 14 299 68 77 37 108 59 170 122 132 131 194 281 194 466 0 185-62 335-193 466-83 83-192 145-305 174-75 19-251 19-325-1z" />
    <path fill="#0D2167" d="M6297 4465c-218-55-400-231-468-455-33-106-33-264 0-370 79-259 305-448 561-469 327-27 599 149 701 454 20 59 24 90 24 200 0 110-4 141-24 200-67 201-227 363-421 427-84 28-286 35-373 13z" />
    <path fill="#0D2167" d="M3825 1956c-288-56-499-281-535-573-39-309 156-611 455-706 58-18 93-22 205-22 121 0 143 3 208 27 103 37 175 83 251 159 126 126 182 255 189 439 5 138-9 206-67 325-127 257-425 405-706 351z" />
  </g>
</svg>
